<svg width="3057" height="384" viewBox="0 0 3057 384" fill="none" xmlns="http://www.w3.org/2000/svg">
<path d="M1.17883 298.667L510.482 327.758L1019.79 384L1529.09 300.606L2038.39 290.909L2547.7 302.545L3057 356.848V5.93662e-05H2547.7H2038.39H1529.09H1019.79H510.482H1.17883V298.667Z" fill="#F5730A"/>
<path d="M0 279.985L509.5 295.971L1019 271.104L1528.5 281.762L2038 326.167L2547.5 224.923L3057 304.852V50.8539H2547.5H2038H1528.5H1019H509.5H0V279.985Z" fill="#F24339"/>
<path d="M0 274.06L509.304 198.424L1018.61 206.181L1527.91 231.393L2037.21 277.939L2546.52 264.363L3055.82 188.727V31.6356H2546.52H2037.21H1527.91H1018.61H509.304H0V274.06Z" fill="#DF0058"/>
<path d="M0 165.454L509.304 188.726L1018.61 161.575L1527.91 146.06L2037.21 211.999L2546.52 155.757L3055.82 204.242V31.6355H2546.52H2037.21H1527.91H1018.61H509.304H0V165.454Z" fill="#BB0073"/>
<path d="M0 109.891L509.5 140.287L1019 91.1864L1528.5 79.4958L2038 114.567L2547.5 60.7909L3057 84.172V-5.53131e-05H2547.5H2038H1528.5H1019H509.5H0V109.891Z" fill="#870086"/>
</svg>
