<svg width="2500" height="296" viewBox="0 0 2500 296" fill="none" xmlns="http://www.w3.org/2000/svg">
<path d="M0.963989 230.222L417.47 252.646L833.976 296L1250.48 231.717L1666.99 224.242L2083.49 233.212L2500 275.071V3.05176e-05H2083.49H1666.99H1250.48H833.976H417.47H0.963989V230.222Z" fill="#F5730A"/>
<path d="M0 215.822L416.667 228.144L833.333 208.976L1250 217.191L1666.67 251.42L2083.33 173.378L2500 234.99V39.1999H2083.33H1666.67H1250H833.333H416.667H0V215.822Z" fill="#F24339"/>
<path d="M0 211.254L416.506 152.951L833.012 158.931L1249.52 178.366L1666.02 214.244L2082.53 203.78L2499.04 145.477V24.3857H2082.53H1666.02H1249.52H833.012H416.506H0V211.254Z" fill="#DF0058"/>
<path d="M0 127.537L416.506 145.477L833.012 124.547L1249.52 112.588L1666.02 163.416L2082.53 120.062L2499.04 157.436V24.3857H2082.53H1666.02H1249.52H833.012H416.506H0V127.537Z" fill="#BB0073"/>
<path d="M0 84.7079L416.667 108.138L833.333 70.2895L1250 61.2781L1666.67 88.3125L2083.33 46.8597L2500 64.8827V1.52588e-05H2083.33H1666.67H1250H833.333H416.667H0V84.7079Z" fill="#870086"/>
</svg>
