<svg width="1279" height="247" viewBox="0 0 1279 247" fill="none" xmlns="http://www.w3.org/2000/svg">
<path d="M0.493164 192.096L213.578 210.806L426.662 246.98L639.747 193.343L852.831 187.106L1065.92 194.59L1279 229.517V-9.53674e-06H1065.92H852.831H639.747H426.662H213.578H0.493164V192.096Z" fill="#F5730A"/>
<path d="M0 180.08L213.167 190.362L426.333 174.368L639.5 181.223L852.667 209.783L1065.83 144.665L1279 196.074V32.7081H1065.83H852.667H639.5H426.333H213.167H0V180.08Z" fill="#F24339"/>
<path d="M0 176.269L213.084 127.621L426.169 132.611L639.253 148.827L852.338 178.764L1065.42 170.032L1278.51 121.385V20.3472H1065.42H852.338H639.253H426.169H213.084H0V176.269Z" fill="#DF0058"/>
<path d="M0 106.416L213.084 121.385L426.169 103.921L639.253 93.9424L852.338 136.353L1065.42 100.179L1278.51 131.364V20.3473H1065.42H852.338H639.253H426.169H213.084H0V106.416Z" fill="#BB0073"/>
<path d="M0 70.6796L213.167 90.2293L426.333 58.649L639.5 51.1299L852.667 73.6873L1065.83 39.0994L1279 54.1376V-9.05991e-06H1065.83H852.667H639.5H426.333H213.167H0V70.6796Z" fill="#870086"/>
</svg>