<svg width="2654" height="396" viewBox="0 0 2654 396" fill="none" xmlns="http://www.w3.org/2000/svg">
<path d="M1.02332 308L443.186 338L885.349 396L1327.51 310L1769.67 300L2211.84 312L2654 368V3.05176e-05H2211.84H1769.67H1327.51H885.349H443.186H1.02332V308Z" fill="#F5730A"/>
<path d="M0 288.735L442.333 305.22L884.667 279.576L1327 290.567L1769.33 336.359L2211.67 231.952L2654 314.379V52.4431H2211.67H1769.33H1327H884.667H442.333H0V288.735Z" fill="#F24339"/>
<path d="M0 282.624L442.163 204.624L884.326 212.624L1326.49 238.624L1768.65 286.624L2210.81 272.624L2652.98 194.624V32.6241H2210.81H1768.65H1326.49H884.326H442.163H0V282.624Z" fill="#DF0058"/>
<path d="M0 170.624L442.163 194.624L884.326 166.624L1326.49 150.624L1768.65 218.624L2210.81 160.624L2652.98 210.624V32.6242H2210.81H1768.65H1326.49H884.326H442.163H0V170.624Z" fill="#BB0073"/>
<path d="M0 113.325L442.333 144.671L884.667 94.036L1327 81.9801L1769.33 118.148L2211.67 62.6907L2654 86.8025V1.52588e-05H2211.67H1769.33H1327H884.667H442.333H0V113.325Z" fill="#870086"/>
</svg>
